<svg id="Layer_1" enable-background="new 0 0 512 512" height="512" viewBox="0 0 512 512" width="512" xmlns="http://www.w3.org/2000/svg"><g><path d="m419.901 451.2h-74.94c36.846-16.054 67.969-44.257 87.61-81.163 1.949-3.663.56-8.215-3.104-10.164-3.663-1.951-8.216-.561-10.165 3.103-28.961 54.419-85.12 88.224-146.563 88.224-55.848 0-107.73-28.254-138.361-74.513h24.775c27.897 34.666 69.079 54.473 113.586 54.473 80.424 0 145.855-65.43 145.855-145.854 0-51.428-26.714-98.351-70.363-124.766l14.512-14.512c21.994 14.269 40.46 33.64 53.623 56.335 14.568 25.119 22.268 53.8 22.268 82.943 0 17.484-2.72 34.711-8.083 51.203-3.14 9.203 11.356 13.997 14.292 4.649 5.853-17.996 8.821-36.787 8.821-55.852 0-31.788-8.402-63.076-24.296-90.483-13.811-23.815-32.988-44.262-55.788-59.631l.689-.689c2.91-2.798 2.91-7.83 0-10.628l-4.998-4.998 19.681-19.682 4.997 4.997c2.799 2.911 7.829 2.911 10.629 0l25.882-25.881c2.935-2.935 2.935-7.693 0-10.628l-65.5-65.501c-2.799-2.911-7.829-2.911-10.629 0l-25.882 25.882c-2.935 2.935-2.935 7.693 0 10.628l4.998 4.998-19.682 19.682-4.997-4.997c-2.936-2.935-7.693-2.935-10.629 0l-92.774 92.774-18.202-18.202c-2.936-2.935-7.693-2.935-10.628 0-8.477 8.477-13.582 19.06-15.345 30.08l-14.071 2.224c-11.908 1.63-20.714 13.741-18.593 25.571 1.607 11.904 13.796 20.727 25.572 18.593l18.708-2.956c1.161 1.422 2.403 2.799 3.728 4.124l6.955 6.955-10.424 10.424c-8.717 8.717-8.717 22.9 0 31.616 8.718 8.717 22.899 8.717 31.617 0l10.424-10.424 6.954 6.954c1.325 1.325 2.703 2.568 4.125 3.729l-2.956 18.708c-2.122 11.831 6.684 23.942 18.592 25.572 11.776 2.135 23.964-6.689 25.572-18.593l2.223-14.071c11.02-1.763 21.605-6.869 30.08-15.345 2.912-2.798 2.911-7.83.001-10.628l-18.203-18.203 17.56-17.56c2.935-2.934 2.935-7.693 0-10.627-2.936-2.935-7.693-2.935-10.629 0l-17.559 17.559-54.873-54.873 87.46-87.461 54.874 54.873-48.612 48.612c-2.935 2.934-2.935 7.693 0 10.627 2.936 2.935 7.693 2.935 10.629 0l16.898-16.898c41.045 23.31 66.323 66.41 66.323 113.775 0 72.137-58.688 130.824-130.826 130.824-35.686 0-68.991-14.207-93.536-39.443h127.375c12.509 0 22.686-10.176 22.686-22.685s-10.177-22.686-22.686-22.686h-135.605c-4.151 0-7.515 3.365-7.515 7.515s3.364 7.515 7.515 7.515h135.607c4.221 0 7.656 3.434 7.656 7.656s-3.435 7.655-7.656 7.655h-225.56c-4.221 0-7.656-3.434-7.656-7.655s3.435-7.656 7.656-7.656h59.893c4.151 0 7.515-3.365 7.515-7.515s-3.364-7.515-7.515-7.515h-59.893c-12.509 0-22.686 10.177-22.686 22.686s10.176 22.685 22.686 22.685h35.649c19.749 33.62 49.413 59.429 84.054 74.513h-75.143c-17.957 0-32.565 14.609-32.565 32.565v20.72c0 4.15 3.364 7.515 7.515 7.515h344.42c4.151 0 7.515-3.365 7.515-7.515v-20.72c.001-17.954-14.607-32.563-32.564-32.563zm-268.148-256.631c-9.612 1.225-11.804-12.677-2.287-14.472l11.419-1.805c.577 4.861 1.789 9.661 3.661 14.255zm42.302 54.381c-6.612 6.831-17.188-3.754-10.361-10.361l10.424-10.424 10.361 10.361zm50.113 40.321c-3.903-.534-6.787-4.502-6.092-8.379l2.022-12.793c4.594 1.872 9.393 3.083 14.255 3.661l-1.804 11.419c-.631 3.989-4.393 6.727-8.381 6.092zm-11.478-43.791-45.526-45.525c-7.531-7.53-11.676-17.541-11.676-28.19 0-8.099 2.398-15.829 6.859-22.379l100.907 100.907c-15.503 10.519-36.838 8.915-50.564-4.813zm126.956-227.355 54.873 54.873-15.254 15.254-54.873-54.873zm-15.57 36.193 34.249 34.25-19.682 19.681-34.249-34.249zm93.36 442.652h-329.39v-13.205c0-9.669 7.866-17.535 17.535-17.535h294.32c9.669 0 17.535 7.866 17.535 17.535z"/></g></svg>